<?xml version="1.0" encoding="UTF-8"?>
<!DOCTYPE svg PUBLIC "-//W3C//DTD SVG 1.1//EN" "http://www.w3.org/Graphics/SVG/1.1/DTD/svg11.dtd">
<!-- Creator: CorelDRAW (OEM Version) -->
<svg xmlns="http://www.w3.org/2000/svg" xml:space="preserve" width="5.64194in" height="5.64031in" version="1.1" style="shape-rendering:geometricPrecision; text-rendering:geometricPrecision; image-rendering:optimizeQuality; fill-rule:evenodd; clip-rule:evenodd"
viewBox="0 0 5613.26 5611.63"
 xmlns:xlink="http://www.w3.org/1999/xlink"
 xmlns:xodm="http://www.corel.com/coreldraw/odm/2003">
 <defs>
  <style type="text/css">
   <![CDATA[
    .fil1 {fill:#ED701E}
    .fil0 {fill:#0B5FA9}
   ]]>
  </style>
 </defs>
 <g id="Layer_x0020_1">
  <metadata id="CorelCorpID_0Corel-Layer"/>
  <g id="_2623675154112">
   <path class="fil0" d="M2965.7 3539.61l-547.8 -628.23c-23.53,-24.64 -37.36,-47.74 -61.62,-71.97 -34.26,-34.22 -31.61,-26.16 -54.84,-67.01 20.89,-46.4 301.36,-368.54 343.09,-421.75 47.99,-61.2 100.5,-103.23 102.8,-141.84 -224.06,-0.41 -627.69,-45.05 -825.89,-17.44 -10.85,56.78 -193.46,299.14 -205.92,332.43l-2.72 -1196.88 -614.04 -0.07 0.36 2902.73 632.36 -10.34 -7.77 -1088.79c55.69,28.2 289,342.01 334.66,395.12l478 588.97c60.41,61.58 153.65,95.27 274.93,94.85 239.12,-0.83 477.7,-16.52 717.3,-17.83 -22.45,-45.48 -28.12,-35.89 -61.09,-74.55 -162.19,-190.21 -349.5,-385.86 -501.82,-577.39z"/>
   <path class="fil1" d="M3095.86 2128.32c44.75,28.51 614.87,22.68 721.85,25.29 139.1,3.36 211.53,-4.09 297.81,78.94 146.26,140.73 231.61,625.25 -273.57,625.54 -249.4,0.14 -499.21,4.05 -748.54,3 -13.71,89.9 -12.01,494.62 -0.69,589.33 25.54,213.41 266.63,397.48 403.38,564.91 30.5,37.37 131.94,165 174.99,190.55l-7.63 -578.95c282.94,-47.75 504.27,95.76 787.22,-270.28 523.16,-582.13 344.62,-1676.32 -257.84,-1844.5 -111.5,-38.89 -356.27,-59.19 -484.27,-51.77l-533.94 584.38c-13.86,15.01 -27.64,26.88 -42.22,42.83l-36.54 40.73z"/>
   <path class="fil1" d="M2987.17 5603.73l3.61 -177.02c-171.6,-19.95 -295.52,22.04 -627.48,-35.97 -188.51,-32.93 -365.55,-81.05 -530.11,-148.44 -989.41,-405.17 -1646.93,-1337.89 -1652.64,-2421.38 -7.97,-1512.85 1242.38,-2719.09 2789.05,-2636.04l-1.41 -184.52c-483.99,-4.91 -827.65,39.95 -1231.03,206.2 -307.85,126.88 -535.13,278.04 -780.77,480.56 -237.33,195.68 -541.53,585.69 -696.16,928.52 -568.19,1259.75 -162.67,2637.86 796.57,3384.23 540.47,420.53 1207.51,659.17 1930.37,603.87z"/>
   <path class="fil0" d="M3264.17 219.5c361.71,85.3 579.73,152.47 868.21,322.64 1103.54,650.94 1608.74,2022.42 1100.57,3257.66 -162.83,395.78 -327.56,596.57 -599.39,879.81l-156.08 146.84c-300.91,251.11 -829.35,524 -1233.21,562.56l-0.71 185.11c497.9,-63.99 960.92,-298.56 1329.97,-590.99 157.25,-124.6 349.45,-323.48 469.86,-488.16 813.74,-1112.93 743.95,-2541 -132.34,-3543.2 -197.42,-225.79 -408.39,-401.19 -706.68,-578.87 -208.78,-124.37 -653.66,-313.7 -937.72,-334.52l-2.48 181.13z"/>
   <path class="fil1" d="M2265.81 2131.79l581.91 2.69c55.54,-27.91 625.08,-719.66 630.48,-731.5l-849.82 -36.12 -399.92 471.27c-65.25,72.21 -208.22,222.75 -244.83,292.86l282.18 0.81z"/>
  </g>
 </g>
</svg>
